<svg xmlns="http://www.w3.org/2000/svg" width="98" height="32" viewBox="0 0 98 32">
    <g fill="#6A42E9" fill-rule="nonzero">
        <path d="M48.572 28.044h-4.14v-16.2h4.14v16.2zM44 6.012c0-1.44 1.152-2.412 2.592-2.412 1.26 0 2.376.972 2.376 2.412 0 1.584-1.116 2.592-2.376 2.592C45.116 8.604 44 7.596 44 6.012zm9.432 15.876V7.344h4.14v4.5h5.22v3.888h-5.22v5.904c0 1.944.648 2.916 1.944 2.916.828 0 1.656-.324 2.484-.936l1.26 3.204c-1.296 1.044-2.88 1.584-4.788 1.584-3.564 0-5.04-2.196-5.04-6.516zm25.38 1.62L80 26.424c-1.584 1.332-3.636 2.016-6.192 2.016-2.628 0-4.716-.792-6.336-2.34-1.584-1.548-2.376-3.6-2.376-6.156 0-2.412.792-4.428 2.34-6.048 1.548-1.62 3.636-2.448 6.228-2.448 2.124 0 3.96.72 5.436 2.124 1.476 1.404 2.232 3.204 2.232 5.4 0 .9-.072 1.656-.252 2.232h-11.7c.324 2.412 2.268 3.78 4.86 3.78 1.836 0 3.348-.504 4.572-1.476zm-5.328-8.604c-2.34 0-3.78 1.188-4.248 3.528h7.956c.036-2.016-1.404-3.528-3.708-3.528zm18.648.828h-8.244v-3.888h14.04v2.988l-8.784 9.36h8.604v3.852h-14.4v-2.988l8.784-9.324zM16 0c8.837 0 16 7.163 16 16s-7.163 16-16 16S0 24.837 0 16 7.163 0 16 0zm3.898 4.806l-2.818 7.736a.225.225 0 0 0 .211.302h5.331a.225.225 0 0 1 .198.331l-7.94 14.623c.369.034.742.052 1.12.052 6.545 0 11.85-5.305 11.85-11.85 0-5.179-3.322-9.582-7.952-11.194zm-5.782-.507C8.467 5.2 4.15 10.096 4.15 16c0 5.108 3.232 9.46 7.762 11.126l3.129-9.956a.225.225 0 0 0-.215-.292H10.31a.225.225 0 0 1-.214-.294z"/>
    </g>
</svg>
